<?xml version="1.0" standalone="no"?>
<!DOCTYPE svg PUBLIC "-//W3C//DTD SVG 20010904//EN"
 "http://www.w3.org/TR/2001/REC-SVG-20010904/DTD/svg10.dtd">
<svg version="1.0" xmlns="http://www.w3.org/2000/svg"
 width="700.000000pt" height="700.000000pt" viewBox="0 0 700.000000 700.000000"
 preserveAspectRatio="xMidYMid meet">
<metadata>
Created by potrace 1.14, written by Peter Selinger 2001-2017
</metadata>
<g transform="translate(0.000000,700.000000) scale(0.100000,-0.100000)"
fill="#000000" stroke="none">
<path d="M3428 6990 c-43 -13 -100 -50 -132 -84 -30 -33 -94 -117 -356 -471
-89 -121 -166 -223 -169 -228 -4 -4 -27 -10 -52 -12 -24 -3 -55 -7 -69 -9 -14
-3 -47 -8 -75 -11 -91 -10 -177 -20 -244 -29 -20 -3 -128 -17 -241 -31 -238
-30 -248 -31 -360 -45 -47 -6 -103 -14 -125 -16 -142 -18 -198 -39 -224 -85
-31 -55 30 -117 204 -209 103 -54 154 -82 415 -225 251 -137 327 -178 357
-194 22 -11 22 -12 -26 -89 -63 -100 -313 -507 -326 -529 -6 -10 -66 -109
-135 -221 -241 -390 -263 -427 -302 -495 -46 -81 -59 -145 -32 -171 14 -14 28
-17 69 -13 40 4 101 30 285 124 129 66 366 187 525 268 160 81 380 194 490
250 323 165 482 245 490 245 4 0 47 -19 94 -42 47 -22 154 -74 236 -113 83
-40 213 -103 290 -140 77 -37 181 -86 230 -110 50 -23 162 -77 250 -120 753
-364 747 -361 806 -370 76 -11 100 35 60 120 -10 22 -137 211 -281 420 -144
209 -292 423 -328 475 -36 52 -84 122 -107 155 -23 33 -68 98 -100 145 -32 47
-72 105 -90 130 -17 25 -35 50 -39 57 -4 8 29 29 100 63 58 27 108 50 110 50
2 0 56 25 119 55 64 30 118 55 120 55 2 0 102 46 260 120 181 85 256 120 315
145 183 80 237 161 138 208 -32 15 -109 31 -193 41 -195 23 -285 34 -335 41
-19 3 -57 7 -85 10 -27 3 -63 7 -80 10 -16 2 -59 6 -95 10 -36 3 -72 8 -80 10
-8 2 -40 7 -70 10 -30 3 -71 8 -90 10 -19 3 -73 9 -120 15 -47 6 -114 13 -150
16 -41 4 -71 12 -82 22 -9 10 -116 159 -237 332 -260 370 -279 393 -341 425
-53 27 -148 39 -192 25z"/>
<path d="M5560 5400 c-58 -27 -141 -66 -185 -86 -207 -97 -271 -126 -287 -131
-10 -3 -18 -9 -18 -13 0 -7 165 -250 271 -400 17 -25 106 -153 197 -285 90
-132 215 -312 275 -400 210 -304 234 -340 262 -394 43 -87 56 -131 60 -207 5
-88 -9 -145 -51 -210 -37 -59 -78 -94 -150 -126 -39 -18 -68 -22 -144 -22
-137 -1 -140 0 -635 239 -171 83 -349 168 -510 245 -55 26 -161 77 -235 113
-74 35 -191 92 -260 125 -69 33 -192 92 -273 131 -263 127 -411 198 -449 215
l-36 17 -134 -69 c-73 -38 -290 -149 -483 -247 -192 -98 -429 -218 -525 -268
-893 -458 -980 -497 -1111 -497 -286 1 -432 267 -305 553 22 52 211 374 226
387 5 4 68 109 105 173 18 31 356 581 380 617 28 42 150 242 176 287 20 35 18
38 -36 65 -16 8 -109 58 -207 111 -97 54 -180 97 -185 97 -10 0 -130 -86 -198
-143 -550 -461 -915 -1051 -1039 -1682 -28 -143 -34 -179 -44 -275 -9 -86 -8
-459 1 -535 19 -155 38 -265 58 -339 6 -23 12 -48 14 -56 12 -62 85 -287 117
-360 183 -418 389 -717 706 -1024 201 -195 370 -321 670 -503 78 -48 363 -184
482 -231 152 -61 362 -128 490 -157 82 -19 210 -47 230 -50 53 -7 107 -16 127
-19 24 -5 89 -14 148 -21 224 -26 643 -27 880 -1 80 9 145 17 166 21 13 3 53
10 89 15 233 37 610 149 845 250 530 228 996 576 1332 995 53 67 87 112 103
135 8 12 28 41 44 64 124 172 281 492 352 716 23 71 72 251 80 295 38 209 49
330 49 545 0 236 -11 341 -59 587 -20 97 -100 350 -136 430 -11 24 -20 45 -20
48 0 12 -93 199 -144 289 -141 250 -304 459 -521 673 -147 144 -416 365 -442
362 -4 0 -55 -23 -113 -49z"/>
</g>
</svg>
